<svg xmlns="http://www.w3.org/2000/svg" x="0px" y="0px" width="64" height="64" viewBox="0 0 172 172" style=" fill:#000000;">
    <defs>
        <linearGradient x1="86.05375" y1="24.15256" x2="86.05375" y2="149.91412" gradientUnits="userSpaceOnUse" id="color-1_110627_gr1">
            <stop offset="0" stop-color="#1cedf5"></stop>
            <stop offset="1" stop-color="#000000"></stop>
        </linearGradient>
        <linearGradient x1="86.05375" y1="20.66688" x2="86.05375" y2="148.13231" gradientUnits="userSpaceOnUse" id="color-2_110627_gr2">
            <stop offset="0" stop-color="#87f5fa"></stop>
            <stop offset="1" stop-color="#383838"></stop>
        </linearGradient>
        <linearGradient x1="86.05375" y1="24.15256" x2="86.05375" y2="149.91412" gradientUnits="userSpaceOnUse" id="color-3_110627_gr3">
            <stop offset="0" stop-color="#1cedf5"></stop>
            <stop offset="1" stop-color="#000000"></stop>
        </linearGradient>
        <linearGradient x1="86.05375" y1="20.66688" x2="86.05375" y2="148.13231" gradientUnits="userSpaceOnUse" id="color-4_110627_gr4">
            <stop offset="0" stop-color="#87f5fa"></stop>
            <stop offset="1" stop-color="#383838"></stop>
        </linearGradient>
    </defs>
    <g transform="translate(4.988,4.988) scale(0.942,0.942)">
        <g fill="none" fill-rule="nonzero" stroke="none" stroke-width="none" stroke-linecap="butt" stroke-linejoin="none" stroke-miterlimit="10" stroke-dasharray="" stroke-dashoffset="0" font-family="none" font-weight="none" font-size="none" text-anchor="none" style="mix-blend-mode: normal">
            <g id="original-icon 1" stroke="#00b4cc" stroke-width="10" stroke-linejoin="round">
                <path d="M145.297,133.89394l-11.40306,11.40306c-3.139,3.139 -8.26137,3.139 -11.40306,0l-36.49087,-36.49356l-36.45862,36.45863c-3.139,3.139 -8.26138,3.139 -11.40306,0l-11.40306,-11.40306c-3.139,-3.139 -3.139,-8.26138 0,-11.40306l36.46131,-36.45594l-36.42369,-36.42369c-3.139,-3.139 -3.139,-8.26138 0,-11.40306l11.40306,-11.40306c3.139,-3.139 8.26137,-3.139 11.40306,0l36.421,36.42638l36.56344,-36.56344c3.139,-3.139 8.26137,-3.139 11.40306,0l11.40306,11.40306c3.139,3.139 3.139,8.26137 0,11.40306l-36.56612,36.56075l36.49356,36.49356c3.139,3.139 3.139,8.26137 0,11.40037zM30.53806,126.25875c-1.04544,1.04544 -1.04544,2.75469 0,3.80013l11.40306,11.40306c1.04544,1.04544 2.75469,1.04544 3.80013,0l40.25875,-40.25875l40.29369,40.29369c1.04544,1.04544 2.75469,1.04544 3.80013,0l11.40306,-11.40306c1.04544,-1.04544 1.04544,-2.75469 0,-3.80012l-40.29369,-40.29369l40.36356,-40.36356c1.04544,-1.04544 1.04544,-2.75469 0,-3.80013l-11.40306,-11.40306c-1.04544,-1.04544 -2.75469,-1.04544 -3.80013,0l-40.36356,40.36356l-40.22381,-40.22381c-1.04544,-1.04544 -2.75469,-1.04544 -3.80013,0l-11.40306,11.40306c-1.04544,1.04544 -1.04544,2.75469 0,3.80013l40.22381,40.22381z" fill="url(#color-1_110627_gr1)"></path>
                <path d="M130.16369,38.03619l3.80013,3.80013c1.04544,1.04544 1.04544,2.75469 0,3.80013l-40.36356,40.36356l40.29369,40.29369c1.04544,1.04544 1.04544,2.75469 0,3.80013l-3.80013,3.80013c-1.04544,1.04544 -2.75469,1.04544 -3.80013,0l-40.29369,-40.29369l-40.25875,40.25875c-1.04544,1.04544 -2.75469,1.04544 -3.80013,0l-3.80013,-3.80013c-1.04544,-1.04544 -1.04544,-2.75469 0,-3.80012l40.25875,-40.25875l-40.22381,-40.22381c-1.04544,-1.04544 -1.04544,-2.75469 0,-3.80013l3.80013,-3.80012c1.04544,-1.04544 2.75469,-1.04544 3.80013,0l40.22381,40.22381l40.36356,-40.36356c1.04544,-1.04813 2.75469,-1.04813 3.80013,0z" fill="url(#color-2_110627_gr2)"></path>
            </g>
            <path d="M0,172v-172h172v172z" fill="none" stroke="none" stroke-width="1" stroke-linejoin="miter"></path>
            <g id="original-icon" stroke="none" stroke-width="1" stroke-linejoin="miter">
                <path d="M145.297,133.89394l-11.40306,11.40306c-3.139,3.139 -8.26137,3.139 -11.40306,0l-36.49087,-36.49356l-36.45862,36.45863c-3.139,3.139 -8.26138,3.139 -11.40306,0l-11.40306,-11.40306c-3.139,-3.139 -3.139,-8.26138 0,-11.40306l36.46131,-36.45594l-36.42369,-36.42369c-3.139,-3.139 -3.139,-8.26138 0,-11.40306l11.40306,-11.40306c3.139,-3.139 8.26137,-3.139 11.40306,0l36.421,36.42638l36.56344,-36.56344c3.139,-3.139 8.26137,-3.139 11.40306,0l11.40306,11.40306c3.139,3.139 3.139,8.26137 0,11.40306l-36.56612,36.56075l36.49356,36.49356c3.139,3.139 3.139,8.26137 0,11.40037zM30.53806,126.25875c-1.04544,1.04544 -1.04544,2.75469 0,3.80013l11.40306,11.40306c1.04544,1.04544 2.75469,1.04544 3.80013,0l40.25875,-40.25875l40.29369,40.29369c1.04544,1.04544 2.75469,1.04544 3.80013,0l11.40306,-11.40306c1.04544,-1.04544 1.04544,-2.75469 0,-3.80012l-40.29369,-40.29369l40.36356,-40.36356c1.04544,-1.04544 1.04544,-2.75469 0,-3.80013l-11.40306,-11.40306c-1.04544,-1.04544 -2.75469,-1.04544 -3.80013,0l-40.36356,40.36356l-40.22381,-40.22381c-1.04544,-1.04544 -2.75469,-1.04544 -3.80013,0l-11.40306,11.40306c-1.04544,1.04544 -1.04544,2.75469 0,3.80013l40.22381,40.22381z" fill="url(#color-3_110627_gr3)"></path>
                <path d="M126.36356,38.03619l-40.36356,40.36356l-40.22381,-40.22381c-1.04544,-1.04544 -2.75469,-1.04544 -3.80013,0l-3.80013,3.80012c-1.04544,1.04544 -1.04544,2.75469 0,3.80013l40.22381,40.22381l-40.25875,40.25875c-1.04544,1.04544 -1.04544,2.75469 0,3.80012l3.80013,3.80013c1.04544,1.04544 2.75469,1.04544 3.80013,0l40.25875,-40.25875l40.29369,40.29369c1.04544,1.04544 2.75469,1.04544 3.80013,0l3.80013,-3.80013c1.04544,-1.04544 1.04544,-2.75469 0,-3.80013l-40.29369,-40.29369l40.36356,-40.36356c1.04544,-1.04544 1.04544,-2.75469 0,-3.80013l-3.80013,-3.80013c-1.04544,-1.04813 -2.75469,-1.04813 -3.80013,0z" fill="url(#color-4_110627_gr4)"></path>
            </g>
            <path d="" fill="none" stroke="none" stroke-width="1" stroke-linejoin="miter"></path>
            <path d="" fill="none" stroke="none" stroke-width="1" stroke-linejoin="miter"></path>
        </g>
    </g>
</svg>
